<svg width="44" height="44" viewBox="0 0 44 44" fill="none" xmlns="http://www.w3.org/2000/svg"><path fill-rule="evenodd" clip-rule="evenodd" d="M27.994 8.5478C25.0931 7.25521 21.8521 6.93499 18.7544 7.6349C15.6566 8.33481 12.8681 10.0173 10.8047 12.4316C8.74134 14.8458 7.51361 17.8623 7.30465 21.0313C7.09569 24.2004 7.9167 27.352 9.64523 30.0163C11.3738 32.6805 13.9172 34.7147 16.8962 35.8153C19.8752 36.9159 23.1302 37.024 26.1757 36.1236C29.2212 35.2231 31.894 33.3622 33.7956 30.8186C35.6971 28.2749 36.7255 25.1847 36.7273 22.0088V20.5042C36.7273 19.6005 37.4599 18.8678 38.3636 18.8678C39.2674 18.8678 40 19.6005 40 20.5042V22.0097C39.9978 25.8914 38.7409 29.6692 36.4168 32.7782C34.0927 35.8871 30.8259 38.1614 27.1036 39.262C23.3814 40.3626 19.4031 40.2305 15.762 38.8853C12.121 37.5401 9.01238 35.0539 6.89973 31.7976C4.78708 28.5413 3.78362 24.6892 4.03902 20.816C4.29441 16.9428 5.79497 13.2559 8.3169 10.3052C10.8388 7.35445 14.247 5.29802 18.0331 4.44257C21.8193 3.58713 25.7805 3.97851 29.326 5.55833C30.1515 5.92616 30.5225 6.89356 30.1547 7.71908C29.7869 8.5446 28.8195 8.91563 27.994 8.5478Z" fill="white"></path><path fill-rule="evenodd" clip-rule="evenodd" d="M39.5207 7.76045C40.16 8.39918 40.1605 9.43529 39.5218 10.0747L23.1582 26.455C22.8514 26.7621 22.4351 26.9347 22.0009 26.9349C21.5668 26.935 21.1504 26.7626 20.8434 26.4556L15.9344 21.5464C15.2953 20.9073 15.2953 19.8712 15.9344 19.2322C16.5734 18.5931 17.6095 18.5931 18.2485 19.2322L22 22.9837L37.2065 7.76161C37.8452 7.12223 38.8813 7.12172 39.5207 7.76045Z" fill="white"></path></svg>